<?xml version="1.0" encoding="UTF-8"?><svg id="Layer_2" xmlns="http://www.w3.org/2000/svg" viewBox="0 0 2029.33 721.1"><defs><style>.cls-1,.cls-2{fill:#fff;}.cls-2{stroke:#d0ba7c;stroke-miterlimit:10;stroke-width:12px;}.cls-3{fill:#171817;}.cls-4{fill:#d0ba7c;}</style></defs><g id="Layer_1-2"><g id="Layer_5"><polygon class="cls-1" points="133.14 209.03 0 415.33 192.9 519.33 192.9 547.45 296 591.33 392 401.76 456 401.76 456 591.33 642.18 547.45 627.59 498.04 694.42 498.04 733.51 547.45 767.01 498.04 894.52 514 921.35 455.33 1113.35 498.04 1139.77 458 1254.79 498.04 1360 458 1396.67 539.75 1512.29 601.45 1661.33 532.19 1661.33 443.78 1728 591.33 1808.63 562 1808.63 468.67 2029.33 363.31 1889.03 148.18 1874.67 174.37 1849.05 102.89 1523.81 166.71 1523.81 223.44 1430.33 196.75 1404.66 229.33 1378.25 138.27 1264.12 114.17 1140.77 154.22 1131.65 127.75 906.67 102.89 887.97 166.71 796.64 169.01 751.67 223.44 710.69 174.19 627.33 166.71 576.69 90.43 607.33 78.47 572.9 24.48 546.97 60.24 520.53 0 472.67 46 503.75 71.42 482 67.05 483.33 110.75 456.33 174.37 204.33 127.67 181.32 196.75 133.14 209.03"/><path class="cls-4" d="m595.3,520.4l-102.3,11.79,1.23-278.3,69.4-8,31.67,274.51Z"/><path class="cls-4" d="m622.15,196.75l52.67,1.95,70.25,137.75,76.93-132.29,56.43,2.1-.25,276.51-80.2-3,9.7-135.17h0l-2.33-.48-66.27,153.88h0l-55.08-158.35-2,.32h0l-.34,135.51-80-3,20.49-275.73Z"/><path class="cls-4" d="m980,267.68l56.37.84-8.29,59.92-54-17.65-7.06,51,118.22,34.07-6.63,47.95-190.61-26.4,37.87-273.72,190.6,26.37-1.67,45-127.94,3.29-6.86,49.33Z"/><path class="cls-4" d="m1501.43,447.77c-6.68,44,45.62,51.93,52.68,8l19-139.79,69.89,10.61-19,139.79c-19.84,128-237.85,94.94-218-33.11l27.6-181.75,69.85,10.61-2.02,185.64Z"/><path class="cls-4" d="m192.9,232.92l19.5-84.74,277.6,63.87-4.5,19.55h0l-20.09,3,3.5,40.05,1.59,22.1-93.71-21.56-96.79,264.56-32.3-11.34,38.91-273.93-93.71-21.56Z"/><path class="cls-4" d="m1557.32,216.06h0l-3-19.84,281.61-43.12,13.16,86-95,14.55,27,275.94-26.48,6.17-92.08-268.1-95,14.55"/><polygon class="cls-3" points="141.53 247.92 54.24 392.08 209.04 478.7 212.04 397.94 97.63 385.58 99.55 370.24 165.32 316.29 141.53 247.92"/><polygon class="cls-3" points="1893.07 212.65 1969.42 362.89 1808.63 437.8 1811.63 357.03 1926.64 353.18 1925.86 337.74 1864.27 279.07 1893.07 212.65"/><path class="cls-4" d="m598.29,166.71c.02,8.9-1.98,17.69-5.86,25.7-4.14,8.57-10.38,15.95-18.15,21.44-8.81,6.23-19.33,9.58-30.12,9.59-29.89,0-54.12-25.4-54.12-56.73s24.23-56.71,54.12-56.71,54.13,25.38,54.13,56.71Z"/><path class="cls-4" d="m1252.34,161.71c-80.2-2.98-147.63,59.63-150.61,139.83-2.98,80.2,59.63,147.63,139.83,150.61,80.2,2.98,147.63-59.62,150.61-139.82,2.98-80.2-59.62-147.64-139.82-150.62,0,0,0,0-.01,0Z"/><path class="cls-4" d="m557.33,149.88l-16.82-3.4c2.06-10.19,13-41.7-2.29-63.62l6.3-4.39c19.04,27.35,15.3,59.05,12.81,71.41Z"/><polygon class="cls-3" points="537.3 88.68 503.75 96.22 503.75 84.65 535.2 84.65 537.3 88.68"/><polygon class="cls-3" points="536.19 80.01 504.32 58.51 523.78 40.46 542.62 75.13 536.19 80.01"/><polygon class="cls-3" points="546.97 77.45 570.16 53 579.82 70.55 549.31 81.1 546.97 77.45"/><polygon class="cls-4" points="563.4 118.61 537.3 118.61 540.36 102.89 559.39 102.89 563.4 118.61"/><circle class="cls-1" cx="559.39" cy="191.7" r="17.33"/><circle class="cls-1" cx="576.69" cy="161.61" r="7.39"/></g><circle class="cls-2" cx="1249.92" cy="308.2" r="32"/><polygon class="cls-2" points="1214.26 457.33 1250.07 316.34 1252.13 320.6 1319.91 441.79 1214.26 457.33"/><polygon class="cls-1" points="685.49 603.77 697.49 679.77 1277.49 721.1 1332.16 538.43 685.49 603.77"/><path class="cls-3" d="m779.42,620.26l10.91.27-13.06,41.47-9.79-.24-3.43-11.65-1.24-9.59h-.18s-1.83,9.45-1.83,9.45l-3.59,11.54-9.79-.24-11.06-42.06,10.97.27,4.46,20.12.84,8.87h.29s1.22-8.76,1.22-8.76l5.02-14.51,8.02.2,3.94,14.79,1.14,8.76h.18s1.4-8.7,1.4-8.7l5.57-19.99Z"/><path class="cls-3" d="m803.22,662.64l-10.62-.26,1.03-41.76,10.62.26-.39,15.81,12.03.3.39-15.81,10.62.26-1.03,41.76-10.62-.26.39-15.75-12.03-.3-.39,15.75Z"/><path class="cls-3" d="m843.77,638.26l16.93.42-.23,9.14-16.93-.42-.15,6.25,18.4.45-.25,9.97-29.08-.72,1.03-41.76,29.08.72-.24,9.91-18.4-.45-.16,6.49Z"/><path class="cls-3" d="m878.46,639.11l16.93.42-.23,9.14-16.93-.42-.15,6.25,18.4.45-.25,9.97-29.08-.72,1.03-41.76,29.08.72-.24,9.91-18.4-.45-.16,6.49Z"/><path class="cls-3" d="m902.86,623.31l10.62.26-.77,31.32,16.99.42-.26,10.44-27.61-.68,1.03-41.76Z"/><path class="cls-3" d="m942.81,638.05c.24-9.61,8.97-14.12,17.64-13.91s17.22,5.21,16.99,14.76l-.35,14.27c-.24,9.56-8.97,14.12-17.64,13.91s-17.22-5.21-16.99-14.76l.35-14.27Zm10.21,14.54c-.08,3.07,3.31,4.63,6.67,4.71s6.76-1.37,6.84-4.38l.35-14.27c.08-3.24-3.36-4.8-6.79-4.89s-6.65,1.49-6.72,4.56l-.35,14.27Z"/><path class="cls-3" d="m993.62,643.08l16.1.4-.24,9.85-16.1-.4-.36,14.39-10.68-.26,1.03-41.76,29.08.72-.25,10.03-18.4-.45-.19,7.49Z"/><path class="cls-3" d="m1037.32,644.16l16.1.4-.24,9.85-16.1-.4-.36,14.39-10.68-.26,1.03-41.76,29.08.72-.25,10.03-18.4-.45-.19,7.49Z"/><path class="cls-3" d="m1059.71,640.93c.24-9.61,8.97-14.12,17.64-13.91s17.22,5.21,16.99,14.76l-.35,14.27c-.24,9.56-8.97,14.12-17.64,13.91s-17.22-5.21-16.99-14.76l.35-14.27Zm10.21,14.54c-.08,3.07,3.31,4.63,6.67,4.71s6.76-1.37,6.84-4.38l.35-14.27c.08-3.24-3.36-4.8-6.79-4.89s-6.65,1.49-6.72,4.56l-.35,14.27Z"/><path class="cls-3" d="m1112.13,656.98l-1.89-.05-.33,13.27-10.68-.26,1.03-41.76,16.69.41c8.61.21,15.18,4.33,15.17,14.13-.19,7.73-3.42,12.02-8.54,13.48l11.03,14.62-13.15-.32-9.35-13.51Zm4.53-8.98c6.67.16,6.9-9.39.24-9.56l-6.19-.15-.24,9.56,6.19.15Z"/><path class="cls-3" d="m1156.65,639.55l-.79,31.79-10.68-.26.79-31.79-11.09-.27.25-10.03,32.86.81-.25,10.03-11.09-.27Z"/><path class="cls-3" d="m1181.87,658c-.17,6.72,11.75,7.02,11.97.3l.69-27.78,10.68.26-.69,27.78c-.54,19.58-33.87,18.76-33.33-.82l.69-27.78,10.68.26-.69,27.78Z"/><path class="cls-3" d="m1211.45,630.93l10.03.25,9.65,18.06,3.33,8.46.3-.05c-.06,0-.94-7.22-1-7.23l.47-18.93,10.5.26-1.03,41.76-10.68-.26-9.03-16.69-3.45-8.47-.3.05,1.16,8.11-.41,16.69-10.56-.26,1.03-41.76Z"/><path class="cls-3" d="m1261.6,648.58l16.93.42-.23,9.14-16.93-.42-.15,6.25,18.4.45-.25,9.97-29.08-.72,1.03-41.76,29.08.72-.24,9.91-18.4-.45-.16,6.49Z"/></g></svg>